<?xml version="1.0" encoding="UTF-8"?> <!-- Generator: Adobe Illustrator 19.2.1, SVG Export Plug-In . SVG Version: 6.00 Build 0) --> <svg xmlns="http://www.w3.org/2000/svg" xmlns:xlink="http://www.w3.org/1999/xlink" version="1.1" x="0px" y="0px" viewBox="0 0 250 250" style="enable-background:new 0 0 250 250;" xml:space="preserve"> <style type="text/css"> .st0{display:none;} .st1{display:inline;} .st2{fill:#3794E5;} </style> <g id="Layer_1" class="st0"> <g id="Group_82" transform="translate(-335 -972)" class="st1"> <path id="Path_9" class="st2" d="M432,1150.6c-1,0-1.9-0.3-2.7-1l-26.7-22.7c-1.7-1.5-1.9-4.1-0.5-5.8c0.1-0.2,0.3-0.3,0.5-0.5 l26.7-22.7c1.7-1.5,4.3-1.3,5.8,0.5c1.5,1.7,1.3,4.3-0.5,5.8l0,0l-23,19.6l23,19.6c1.7,1.5,1.9,4.1,0.5,5.8 C434.3,1150.1,433.2,1150.6,432,1150.6L432,1150.6z"></path> <path id="Path_10" class="st2" d="M484.7,1150.6c-2.3,0-4.1-1.8-4.1-4.1c0-1.2,0.5-2.4,1.4-3.1l23-19.6l-23-19.6 c-1.7-1.5-1.9-4.1-0.5-5.8c1.5-1.7,4.1-1.9,5.8-0.5l26.7,22.7c1.7,1.5,1.9,4.1,0.5,5.8c-0.1,0.2-0.3,0.3-0.5,0.5l-26.7,22.7 C486.6,1150.3,485.7,1150.6,484.7,1150.6L484.7,1150.6z"></path> <path id="Path_11" d="M448.9,1168.7c-0.3,0-0.6,0-0.9-0.1c-2.2-0.5-3.7-2.7-3.2-4.9l16.6-79c0.5-2.2,2.7-3.7,4.9-3.2 s3.7,2.7,3.2,4.9l-16.6,79C452.5,1167.4,450.8,1168.7,448.9,1168.7z"></path> <path id="Path_12" d="M555.6,1221H361.1c-15.3,0-27.7-14-27.7-31.3v-186.5c0-17.3,12.4-31.3,27.7-31.3h194.6 c15.3,0,27.7,14,27.7,31.3v186.5C583.3,1207,570.9,1221,555.6,1221z M361.1,981.2c-10.7,0-19.5,9.9-19.5,22v186.5 c0,12.1,8.7,22,19.5,22h194.6c10.7,0,19.5-9.9,19.5-22v-186.5c0-12.1-8.7-22-19.5-22H361.1z"></path> <path id="Path_13" d="M579.2,1045.8H337.5c-2.3,0-4.1-1.8-4.1-4.1s1.8-4.1,4.1-4.1h241.7c2.3,0,4.1,1.8,4.1,4.1 S581.5,1045.8,579.2,1045.8z"></path> <path id="Path_14" d="M403.9,1018.3c-7.2,0-13.1-5.8-13.1-13.1s5.8-13.1,13.1-13.1c7.2,0,13.1,5.8,13.1,13.1l0,0 C416.9,1012.4,411.1,1018.3,403.9,1018.3z M403.9,1000.4c-2.7,0-4.8,2.1-4.8,4.8c0,2.7,2.1,4.8,4.8,4.8c2.7,0,4.8-2.1,4.8-4.8l0,0 C408.7,1002.6,406.5,1000.4,403.9,1000.4z"></path> <path id="Path_15" d="M363.7,1018.1c-7.2,0-13.1-5.8-13.1-13.1s5.8-13.1,13.1-13.1c7.2,0,13.1,5.8,13.1,13.1 C376.8,1012.3,370.9,1018.1,363.7,1018.1z M363.7,1000.3c-2.7,0-4.8,2.1-4.8,4.8c0,2.7,2.1,4.8,4.8,4.8s4.8-2.1,4.8-4.8v0 C368.5,1002.4,366.4,1000.3,363.7,1000.3z"></path> <path id="Path_16" d="M444,1018.4c-7.2,0-13.1-5.8-13.1-13.1c0-7.2,5.8-13.1,13.1-13.1c7.2,0,13.1,5.8,13.1,13.1 C457,1012.5,451.2,1018.4,444,1018.4z M444,1000.5c-2.7,0-4.8,2.1-4.8,4.8c0,2.7,2.1,4.8,4.8,4.8s4.8-2.1,4.8-4.8 S446.6,1000.5,444,1000.5L444,1000.5z"></path> </g> </g> <g id="Layer_2"> <g id="Group_31" transform="translate(0 29)"> <g id="Group_30"> <path id="Path_29" d="M153.7,117.3h-4.6c-1.7,0-3.3-1.1-3.9-2.7c-0.5-1.3-1.1-2.6-1.6-3.9c-0.7-1.6-0.4-3.4,0.8-4.6l3.3-3.3 c4.9-4.9,4.8-12.8,0-17.7l-11.8-11.8c-4.9-4.9-12.8-4.9-17.7,0l-3.3,3.3c-1.2,1.2-3.1,1.6-4.6,0.8c-1.3-0.6-2.6-1.1-3.9-1.7 c-1.6-0.6-2.7-2.1-2.7-3.9v-4.6c0-6.9-5.6-12.5-12.5-12.5H74.5c-6.9,0-12.5,5.6-12.5,12.5l0,0v4.6c0,1.7-1.1,3.3-2.7,3.9 c-1.3,0.5-2.6,1.1-3.9,1.6c-1.6,0.7-3.4,0.4-4.6-0.8l-3.3-3.3c-4.9-4.9-12.8-4.9-17.7,0L18,85.1c-4.9,4.9-4.9,12.8,0,17.7 l3.3,3.3c1.2,1.2,1.6,3.1,0.8,4.6c-0.6,1.3-1.1,2.6-1.6,3.9c-0.6,1.6-2.2,2.7-3.9,2.7H12c-6.9,0-12.5,5.6-12.5,12.5v16.7 c0,6.9,5.6,12.5,12.5,12.5c0,0,0,0,0,0h4.6c1.7,0,3.3,1.1,3.9,2.7c0.5,1.3,1.1,2.6,1.6,3.9c0.7,1.6,0.4,3.4-0.8,4.6l-3.3,3.3 c-4.9,4.9-4.9,12.8,0,17.7L29.8,203c4.9,4.9,12.8,4.9,17.7,0l3.3-3.3c1.2-1.2,3.1-1.6,4.6-0.8c1.3,0.6,2.6,1.1,3.9,1.7 c1.6,0.6,2.7,2.1,2.7,3.9v4.6c0,6.9,5.6,12.5,12.5,12.5h16.7c6.9,0,12.5-5.6,12.5-12.5l0,0v-4.6c0-1.7,1.1-3.3,2.7-3.9 c1.3-0.5,2.6-1.1,3.9-1.6c1.6-0.7,3.4-0.4,4.6,0.8l3.3,3.3c4.9,4.8,12.8,4.8,17.7,0l11.8-11.8c4.9-4.9,4.9-12.8,0-17.7l-3.3-3.3 c-1.2-1.2-1.6-3.1-0.8-4.6c0.6-1.3,1.1-2.6,1.7-3.9c0.6-1.6,2.1-2.7,3.9-2.7h4.6c6.9,0,12.5-5.6,12.5-12.5v-16.7 C166.2,122.9,160.6,117.3,153.7,117.3z M157.8,146.5c0,2.3-1.9,4.2-4.2,4.2h-4.6c-5.2,0-9.8,3.2-11.7,8c-0.4,1.2-0.9,2.3-1.4,3.4 c-2.1,4.7-1.1,10.3,2.5,14l3.3,3.3c1.6,1.6,1.6,4.3,0,5.9c0,0,0,0,0,0l0,0L130,197.1c-1.6,1.6-4.3,1.6-5.9,0l-3.3-3.3 c-3.7-3.7-9.3-4.6-14-2.5c-1.1,0.5-2.3,1-3.4,1.4c-4.8,1.9-8,6.5-8,11.7v4.6c0,2.3-1.9,4.2-4.2,4.2H74.5c-2.3,0-4.2-1.9-4.2-4.2 v-4.6c0-5.2-3.2-9.8-8-11.7c-1.2-0.4-2.3-0.9-3.4-1.4c-4.7-2.1-10.3-1.1-14,2.5l-3.3,3.3c-1.6,1.6-4.3,1.6-5.9,0c0,0,0,0,0,0l0,0 l-11.8-11.8c-1.6-1.6-1.6-4.3,0-5.9l3.3-3.3c3.6-3.7,4.6-9.3,2.5-14c-0.5-1.1-1-2.3-1.4-3.4c-1.8-4.8-6.5-8-11.7-8.1H12 c-2.3,0-4.2-1.9-4.2-4.2v-16.7c0-2.3,1.9-4.2,4.2-4.2h4.6c5.2,0,9.8-3.2,11.7-8c0.4-1.2,0.9-2.3,1.4-3.4c2.1-4.7,1.1-10.3-2.5-14 l-3.3-3.3c-1.6-1.6-1.6-4.3,0-5.9c0,0,0,0,0,0l0,0l11.8-11.8c1.6-1.6,4.3-1.6,5.9,0l3.3,3.3c3.7,3.7,9.3,4.6,14,2.5 c1.1-0.5,2.3-1,3.4-1.4c4.8-1.8,8-6.5,8.1-11.7v-4.6c0-2.3,1.9-4.2,4.2-4.2h16.7c2.3,0,4.2,1.9,4.2,4.2v4.6c0,5.2,3.2,9.8,8,11.7 c1.2,0.4,2.3,0.9,3.4,1.4c4.7,2.1,10.3,1.2,14-2.5l3.3-3.3c1.6-1.6,4.3-1.6,5.9,0L141.8,91c1.6,1.6,1.6,4.3,0,5.9l-3.3,3.3 c-3.6,3.7-4.6,9.3-2.5,14c0.5,1.1,1,2.3,1.4,3.4c1.9,4.8,6.5,8,11.7,8h4.5c2.3,0,4.2,1.9,4.2,4.2V146.5L157.8,146.5z"></path> </g> </g> <g id="Group_33" transform="translate(15.816)"> <g id="Group_32"> <path id="Path_30" d="M221.2,88h-13.1c-1.7,0-3.3-1.1-3.9-2.7c-1.3-3.9-2.9-7.6-4.7-11.3c-0.8-1.6-0.5-3.5,0.8-4.7l9.3-9.3 c4.9-4.9,4.9-12.8,0-17.7l-17.7-17.7c-4.9-4.9-12.8-4.9-17.7,0l-9.3,9.3c-1.2,1.3-3.1,1.6-4.7,0.8c-3.7-1.8-7.4-3.4-11.3-4.7 c-1.7-0.6-2.8-2.1-2.8-3.9V13c0-6.9-5.6-12.5-12.5-12.5c0,0,0,0,0,0h-25c-6.9,0-12.5,5.6-12.5,12.5v13.1c0,1.7-1.1,3.3-2.7,3.9 c-3.9,1.3-7.6,2.9-11.3,4.7c-1.6,0.8-3.5,0.5-4.7-0.8l-9.3-9.3c-4.9-4.9-12.8-4.9-17.7,0L32.8,42.3c-4.9,4.9-4.9,12.8,0,17.7 l13.7,13.7c1.6,1.6,4.3,1.6,5.9-0.1c1.6-1.6,1.6-4.2,0-5.8L38.7,54.1c-1.6-1.6-1.6-4.3,0-5.9l17.7-17.7c1.6-1.6,4.3-1.6,5.9,0 l9.3,9.3c3.8,3.8,9.5,4.7,14.3,2.4c3.3-1.7,6.7-3.1,10.2-4.2c5-1.7,8.4-6.5,8.4-11.8V13c0-2.3,1.9-4.2,4.2-4.2h25 c2.3,0,4.2,1.9,4.2,4.2v13.1c0,5.3,3.4,10.1,8.4,11.8c3.5,1.2,6.9,2.6,10.2,4.3c4.8,2.4,10.5,1.4,14.3-2.4l9.3-9.3 c1.6-1.6,4.3-1.6,5.9,0l17.7,17.7c1.6,1.6,1.6,4.3,0,5.9l-9.3,9.3c-3.8,3.8-4.7,9.5-2.4,14.3c1.7,3.3,3.1,6.7,4.2,10.2 c1.7,5,6.5,8.4,11.8,8.4h13.1c2.3,0,4.2,1.9,4.2,4.2v25c0,2.3-1.9,4.2-4.2,4.2h-13.1c-5.3,0-10.1,3.4-11.8,8.4 c-1.2,3.5-2.6,6.9-4.3,10.2c-2.4,4.8-1.4,10.5,2.4,14.3l9.3,9.3c1.6,1.6,1.6,4.3,0,5.9L186,195.5c-1.6,1.6-4.3,1.6-5.9,0 l-13.7-13.7c-1.6-1.7-4.2-1.7-5.9-0.1c-1.7,1.6-1.7,4.2-0.1,5.9l0,0l0.1,0.1l13.7,13.7c4.9,4.9,12.8,4.9,17.7,0l17.7-17.7 c4.9-4.9,4.9-12.8,0-17.7l-9.3-9.3c-1.3-1.2-1.6-3.1-0.8-4.7c1.8-3.7,3.4-7.4,4.7-11.3c0.6-1.7,2.1-2.8,3.9-2.8h13.1 c6.9,0,12.5-5.6,12.5-12.5v0v-25C233.7,93.6,228.1,88,221.2,88z"></path> </g> </g> <g id="Group_35" transform="translate(34.115 20.309)"> <g id="Group_34"> <path id="Path_31" d="M141.2,54.4c-21.2-21.1-55.4-21.1-76.6,0c-1.6,1.7-1.5,4.3,0.1,5.9c1.6,1.5,4.1,1.5,5.7,0 c17.9-17.9,46.9-18,64.8-0.2c17.8,17.7,18,46.6,0.4,64.5l-0.4,0.4c-1.7,1.6-1.7,4.2-0.1,5.9c1.6,1.7,4.2,1.7,5.9,0.1l0.1-0.1 C162.3,109.8,162.3,75.6,141.2,54.4z"></path> </g> </g> <g id="Group_36" transform="translate(13.689 51.853)"> <path id="Path_32" class="st2" d="M25.1,97.7h23.5v6.5H32.3v8.8h13.1v6.4H32.3v8.5h17.5v6.5H25.1V97.7z"></path> <path id="Path_33" class="st2" d="M75.9,134.4l-8.2-12.6h-4.2v12.6h-7.2V97.6h13.9c8.9,0,12.8,5.2,12.8,12.2 c0.4,5-2.7,9.6-7.6,11.1l9.1,13.5L75.9,134.4z M63.4,115.4h5.1c4.5,0,6.9-2.3,6.9-5.7c0-3.4-2.4-5.6-6.6-5.6h-5.4L63.4,115.4z"></path> <path id="Path_34" class="st2" d="M90,97.7h13.6c8.9,0,12.8,5.2,12.8,12.2c0,8.1-5.4,12-13.5,12h-5.7v12.6H90L90,97.7z M102.1,115.4c4.6,0,6.8-2.2,6.8-5.6c0-3.4-2.3-5.6-6.5-5.6h-5.1v11.2H102.1z"></path> </g> </g> <g id="Layer_3" class="st0"> <g id="data" transform="translate(-1 -1)" class="st1"> <path id="Path_40" d="M16.1,41.3h8.1v8.1h-8.1V41.3z"></path> <path id="Path_41" d="M32.3,41.3h104.8v8.1H32.3V41.3z"></path> <path id="Path_42" class="st2" d="M40.3,113.9h8.1v8.1h-8.1v32.3h8.1v8.1h-8.1v32.2h96.8v-32.2H129v-8.1h8.1V122H129v-8.1h8.1 V81.6H40.3V113.9z M129,186.5H48.4v-16.1H129L129,186.5z M121,162.3H56.4v-8.1H121V162.3z M129,146.2H48.4V130H129L129,146.2z M121,122H56.4v-8.1H121V122z M48.4,89.7H129v16.1H48.4V89.7z"></path> <path id="Path_43" d="M250,49.4V1h-40.3v20.2h-12.1c-11.1,0-20.1,9-20.2,20.2V122h-24.2V45.3c0-11.1-9-20.1-20.2-20.2H20.2 C9,25.2,0,34.2,0,45.3v153.2c0,11.1,9,20.1,20.2,20.2h112.9c11.1,0,20.1-9,20.2-20.2V130h24.2v80.7c0,11.1,9,20.1,20.2,20.2h12.1 V251H250v-48.4h-40.3v20.2h-12.1c-6.7,0-12.1-5.4-12.1-12.1v-44.3h24.2v20.2H250v-48.4h-40.3v20.2h-24.2V89.7h24.2v24.2H250V65.5 h-40.3v16.1h-24.2V41.3c0-6.7,5.4-12.1,12.1-12.1h12.1v20.2L250,49.4z M8.1,198.6V61.5c3.5,2.6,7.7,4,12.1,4h4v145.2h-4 C13.5,210.7,8.1,205.3,8.1,198.6z M145.2,198.6c0,6.7-5.4,12.1-12.1,12.1H32.3V65.5h100.8c6.7,0,12.1,5.4,12.1,12.1V198.6z M145.2,61.5c-3.5-2.6-7.7-4-12.1-4H20.2c-6.7-0.1-12-5.6-11.9-12.3c0.1-6.5,5.4-11.8,11.9-11.9h112.9c6.7,0,12.1,5.4,12.1,12.1 L145.2,61.5z M217.7,210.7h24.2v32.3h-24.2V210.7z M217.7,146.2h24.2v32.3h-24.2V146.2z M217.7,73.6h24.2v32.3h-24.2V73.6z M217.7,9.1h24.2v32.3h-24.2V9.1z"></path> </g> </g> <g id="Layer_4" class="st0"> <g id="Mask_Group_1" transform="translate(-298 -942)" class="st1"> <g id="customer-support" transform="translate(300.613 942)"> <path id="Path_20" d="M-3.4,23l16.7,29.2c0.6,1,1.5,1.7,2.6,2L31.4,58l53.3,53.3l5.9-5.9L36.5,51.3c-0.5-0.5-1.2-0.9-1.9-1.1 l-14.9-3.7L5.4,21.6L17.6,9.4l24.8,14.2l3.7,14.9c0.2,0.7,0.6,1.4,1.1,1.9l54.1,54.1l5.9-5.9L54,35.4l-3.9-15.5 c-0.3-1.1-1-2-2-2.6L19,0.6c-1.6-0.9-3.7-0.6-5,0.7L-2.7,18C-4,19.3-4.3,21.3-3.4,23z"></path> <path id="Path_21" class="st2" d="M169.8,82.1l-91.6,91.6l-5.9-5.9l91.6-91.6L169.8,82.1z"></path> <path id="Path_22" d="M62.1,177c-0.8-1.3-2.1-2-3.6-2h-25c-1.5,0-2.8,0.8-3.6,2l-12.5,20.8c-0.8,1.3-0.8,3,0,4.3L30,222.9 c0.8,1.3,2.1,2,3.6,2h25c1.5,0,2.8-0.8,3.6-2l12.5-20.8c0.8-1.3,0.8-3,0-4.3L62.1,177z M56.2,216.6H35.9l-10-16.7l10-16.7h20.3 l10,16.7L56.2,216.6z"></path> <path id="Path_23" d="M196,100c27.5,0.1,49.9-22.1,50-49.6c0-4.2-0.5-8.4-1.5-12.4c-0.6-2.2-2.8-3.6-5-3 c-0.7,0.2-1.4,0.6-1.9,1.1l-25.9,25.9l-20.6-6.9l-6.9-20.6L210,8.6c1.6-1.6,1.6-4.3,0-5.9c-0.5-0.5-1.2-0.9-2-1.1 c-26.7-6.8-53.8,9.4-60.5,36.1c-1,4.1-1.5,8.2-1.5,12.4c0,3.3,0.3,6.5,1,9.8L55.8,151c-3.2-0.7-6.5-1-9.7-1 c-27.6,0-50,22.4-50,50s22.4,50,50,50c27.6,0,50-22.4,50-50c0,0,0,0,0,0c0-3.3-0.4-6.5-1-9.8l21.8-21.8l9.6,9.6 c1.6,1.6,4.3,1.6,5.9,0c0,0,0,0,0,0l2.1-2.1c1.9-1.7,4.9-1.6,6.6,0.3c1.6,1.8,1.6,4.5,0,6.3l0,0l-2.1,2.1c-1.6,1.6-1.6,4.3,0,5.9 l49.7,49.7c13.1,13.2,34.4,13.3,47.5,0.2c13.2-13.1,13.3-34.4,0.2-47.5l-0.2-0.2l-49.7-49.7c-1.6-1.6-4.3-1.6-5.9,0l-2.1,2.1 c-1.8,1.8-4.8,1.8-6.6,0c-1.8-1.8-1.8-4.8,0-6.6l0,0l2.1-2.1c1.6-1.6,1.6-4.3,0-5.9l-9.5-9.6L186.2,99 C189.4,99.7,192.7,100,196,100L196,100z M212.3,241.6c-3,0-6-0.6-8.9-1.6l32.5-32.5c4.9,13.1-1.7,27.6-14.8,32.5 C218.4,241.1,215.4,241.6,212.3,241.6z M165.1,133.4c-4.6,5.5-3.9,13.7,1.6,18.3c4.8,4,11.9,4,16.7,0l46.8,46.8 c0.5,0.5,1,1,1.4,1.6L196,235.7c-0.5-0.5-1.1-0.9-1.6-1.4l-46.8-46.8c4.6-5.5,3.9-13.7-1.6-18.3c-4.8-4.1-11.9-4.1-16.7,0 l-6.7-6.7l35.8-35.8L165.1,133.4z M182,91.5L87.5,186c-1,1-1.5,2.5-1.1,4c5.7,22.4-7.9,45.3-30.3,51c-22.4,5.7-45.3-7.9-51-30.3 s7.9-45.3,30.3-51c6.8-1.7,13.9-1.7,20.7,0c1.4,0.3,2.9-0.1,4-1.1l94.5-94.5c1-1,1.5-2.5,1.1-4c-5.7-22.2,7.7-44.8,29.9-50.4 c4.2-1.1,8.5-1.5,12.9-1.2l-22,22c-1.1,1.1-1.5,2.8-1,4.3l8.3,25c0.4,1.2,1.4,2.2,2.6,2.6l25,8.3c1.5,0.5,3.1,0.1,4.3-1l22-22 c0,0.8,0.1,1.6,0.1,2.4c0.1,22.9-18.3,41.5-41.2,41.6c-3.5,0-7.1-0.4-10.5-1.3C184.5,90,183,90.5,182,91.5L182,91.5L182,91.5z"></path> <path id="Path_24" d="M211.4,209.5l-5.9,5.9l-41.6-41.6l5.9-5.9L211.4,209.5z"></path> </g> </g> </g> <g id="Layer_5" class="st0"> <g id="Group_76" transform="translate(-335 -967.667)" class="st1"> <path id="Path_17" class="st2" d="M459.5,1093.3c-23,0-41.7,18.7-41.7,41.7s18.7,41.7,41.7,41.7c23,0,41.7-18.7,41.7-41.7l0,0 C501.2,1112,482.5,1093.3,459.5,1093.3C459.5,1093.3,459.5,1093.3,459.5,1093.3z M459.5,1168.3c-18.4,0-33.3-14.9-33.3-33.3 s14.9-33.3,33.3-33.3c18.4,0,33.3,14.9,33.3,33.3S477.9,1168.3,459.5,1168.3C459.5,1168.3,459.5,1168.3,459.5,1168.3z"></path> <path id="Path_18" d="M459.5,1114.2c-11.5,0-20.8,9.3-20.8,20.8c0,11.5,9.3,20.8,20.8,20.8c11.5,0,20.8-9.3,20.8-20.8l0,0 C480.4,1123.5,471,1114.2,459.5,1114.2z M459.5,1147.5c-6.9,0-12.5-5.6-12.5-12.5c0-6.9,5.6-12.5,12.5-12.5 c6.9,0,12.5,5.6,12.5,12.5C472,1141.9,466.4,1147.5,459.5,1147.5L459.5,1147.5z"></path> <path id="Path_19" d="M555.3,1043.8v-0.4c0-16.1-13.1-29.2-29.3-29.2c-2.5,0-4.9,0.3-7.3,0.9c-11-32.7-46.4-50.3-79.1-39.3 c-18.6,6.2-33.1,20.8-39.3,39.3c-15.6-4.1-31.6,5.3-35.6,20.9c-0.6,2.4-0.9,4.8-0.9,7.3c0,0.1,0,0.3,0,0.4 c-25.1,11.5-36.1,41.1-24.7,66.2c7.5,16.4,23.3,27.5,41.3,29v8.5c0,2.3,1.9,4.2,4.2,4.2c0,0,0,0,0,0h14.7 c1.4,4.9,3.3,9.7,5.9,14.2l-10.4,10.4c-1.6,1.6-1.6,4.3,0,5.9l17.7,17.7c1.6,1.6,4.3,1.6,5.9,0l10.4-10.4 c4.5,2.5,9.2,4.5,14.2,5.9v14.7c0,2.3,1.9,4.2,4.2,4.2l0,0h25c2.3,0,4.2-1.9,4.2-4.2l0,0v-14.7c4.9-1.4,9.7-3.3,14.2-5.9 l10.4,10.4c1.6,1.6,4.2,1.6,5.9,0l17.7-17.7c1.6-1.6,1.6-4.3,0-5.9l-10.4-10.4c2.5-4.5,4.5-9.2,5.9-14.2h14.7 c2.3,0,4.2-1.9,4.2-4.2l0,0v-8.5c0.1,0,0.2,0,0.4,0c27.5-2.5,47.7-26.8,45.3-54.2C582.7,1066.9,571.6,1051.2,555.3,1043.8 L555.3,1043.8z M530.4,1143.3h-13.8c-2,0-3.7,1.4-4.1,3.3c-1.4,6.3-3.8,12.2-7.3,17.6c-1.1,1.7-0.8,3.8,0.6,5.2l9.8,9.8 l-11.8,11.8l-9.8-9.8c-1.4-1.4-3.5-1.6-5.2-0.6c-5.4,3.5-11.3,5.9-17.6,7.3c-1.9,0.4-3.3,2.1-3.3,4.1v13.8h-16.7V1192 c0-2-1.4-3.6-3.3-4.1c-6.3-1.4-12.2-3.8-17.6-7.3c-1.6-1.1-3.8-0.8-5.2,0.5l-9.8,9.8l-11.8-11.8l9.8-9.8c1.4-1.4,1.6-3.6,0.6-5.2 c-3.5-5.4-5.9-11.3-7.3-17.6c-0.4-1.9-2.1-3.3-4.1-3.3h-13.9v-16.7h13.8c2,0,3.7-1.4,4.1-3.3c1.4-6.3,3.8-12.2,7.3-17.6 c1.1-1.7,0.8-3.8-0.6-5.2l-9.8-9.8l11.8-11.8l9.8,9.8c1.4,1.4,3.5,1.6,5.2,0.6c5.4-3.5,11.3-5.9,17.6-7.3c1.9-0.4,3.3-2.1,3.3-4.1 v-13.9h16.7v13.8c0,2,1.4,3.6,3.3,4.1c6.3,1.4,12.2,3.8,17.6,7.3c1.6,1.1,3.8,0.8,5.2-0.6l9.8-9.8l11.8,11.8l-9.8,9.8 c-1.4,1.4-1.6,3.6-0.6,5.2c3.5,5.4,5.9,11.3,7.3,17.6c0.4,1.9,2.1,3.3,4.1,3.3h13.9L530.4,1143.3z M538.7,1130.6v-8.1 c0-2.3-1.9-4.2-4.2-4.2l0,0h-14.7c-1.4-4.9-3.3-9.7-5.9-14.2l10.4-10.4c1.6-1.6,1.6-4.3,0-5.9l-17.7-17.7c-1.6-1.6-4.3-1.6-5.9,0 l-10.4,10.4c-4.5-2.5-9.2-4.5-14.2-5.9V1060c0-2.3-1.9-4.2-4.2-4.2h-25c-2.3,0-4.2,1.9-4.2,4.2v14.7c-4.9,1.4-9.7,3.3-14.2,5.9 l-10.4-10.4c-1.7-1.6-4.2-1.6-5.9,0l-17.7,17.7c-1.6,1.6-1.6,4.3,0,5.9l10.4,10.4c-2.5,4.5-4.5,9.2-5.9,14.2h-14.7 c-2.3,0-4.2,1.9-4.2,4.2v8.1c-22.9-2.3-39.6-22.7-37.3-45.6c1.6-15.6,11.8-29,26.4-34.7c1.8-0.7,2.9-2.5,2.7-4.4 c-1.5-11.3,6.5-21.7,17.8-23.2c0.9-0.1,1.9-0.2,2.8-0.2c2.9,0,5.8,0.6,8.4,1.8c2.1,1,4.6,0,5.5-2.1c0.1-0.2,0.2-0.5,0.2-0.7 c7.4-29,37-46.4,65.9-39c19.1,4.9,34.1,19.9,39,39c0.6,2.2,2.8,3.6,5.1,3c0.2-0.1,0.5-0.1,0.7-0.2c2.6-1.2,5.5-1.8,8.4-1.8 c11.4-0.1,20.8,9.1,20.8,20.6c0,0.9-0.1,1.9-0.2,2.8c-0.2,1.9,0.9,3.7,2.7,4.4c21.5,8.3,32.1,32.4,23.9,53.8 C567.7,1118.8,554.3,1129,538.7,1130.6L538.7,1130.6z"></path> </g> </g> <g id="Layer_6" class="st0"> <g id="Group_77" transform="translate(-40.638 -25.997)" class="st1"> <path id="Path_35" d="M253.5,178.3l-1,0.5c-4.6-5.7-12.4-7.6-19-4.7l-0.1,0l-2.6,1.4c-6.7-5.6-16.2-6.4-23.8-2.1l-14.6,7.9h-19.4 c-4.2,0-8.3-1-12.1-2.8l-2.7-1.3c-15.7-7.6-34.3-5.8-48.2,4.7c-0.1,0.1-0.1,0.1-0.2,0.2l-6.5,5.8c-2.4,2.1-5.2,3.7-8.2,4.6 l-3.6-12c-0.4-1.3-1.6-2.3-3-2.3H57.1c-1.8,0.1-3.2,1.6-3.1,3.5c0,0,0,0,0,0c0,0.1,0,0.1,0,0.2l10.5,85.6c0.2,1.6,1.5,2.7,3.1,2.7 h47c1.6,0.1,3.1-1.2,3.1-2.8c0-0.4,0-0.7-0.1-1.1l-6.1-20.1l19.1-12.1c2.5-1.4,5.5-1.8,8.3-1.1l0.2,0l39.1,7.2 c10.7,1.9,21.7,0.4,31.4-4.4c0.1-0.1,0.3-0.1,0.4-0.2l67.7-46.5c1.4-0.9,1.8-2.8,0.9-4.2C273.4,176.6,262.4,173.6,253.5,178.3z M236.4,179.8c3.6-1.4,7.7-0.6,10.4,2.2l-25.4,13.7l-1.3,0.7c-0.8-2.2-1.9-4.2-3.3-6L236.4,179.8z M210,179.1L210,179.1 c4.6-2.6,10.1-2.7,14.6-0.1l-12.6,6.8c-2.3-1.7-5-2.9-7.7-3.6L210,179.1z M70.3,264.1l-9.7-79.4h25.5l24.2,79.4H70.3z M206.6,230.6c-8.5,4.1-18.1,5.4-27.3,3.8l-39-7.2c-4.3-1.1-8.9-0.4-12.8,1.7l-0.1,0.1l-17.7,11.2l-12.6-41.5 c3.9-1.2,7.5-3.2,10.5-5.9l6.4-5.7c12-9,28.1-10.6,41.6-4l2.7,1.3c4.6,2.2,9.7,3.4,14.8,3.4h26c7.7,0,14.3,5.4,15.9,12.9 l-18.6-0.8c-6.9-0.3-13.8,0-20.6,0.9c-1.7,0.2-2.9,1.8-2.7,3.5s1.8,2.9,3.5,2.7l0,0h0.1c6.4-0.9,12.9-1.2,19.4-0.9l22.2,1h0.1 c1.7,0,3.1-1.4,3.1-3.1l0,0c0-0.4,0-0.9,0-1.3l2.9-1.5l32.2-17.4c4.9-2.7,11-1.7,14.9,2.2L206.6,230.6z"></path> <path id="Path_36" d="M79.2,252.5c0,5.2,4.2,9.4,9.4,9.4s9.4-4.2,9.4-9.4c0-5.2-4.2-9.4-9.4-9.4S79.2,247.3,79.2,252.5z M88.6,249.4c1.7,0,3.1,1.4,3.1,3.1c0,1.7-1.4,3.1-3.1,3.1s-3.1-1.4-3.1-3.1C85.5,250.8,86.9,249.4,88.6,249.4L88.6,249.4z"></path> <path id="Path_37" d="M108.7,102l10.3,1c1.1,4.3,2.9,8.4,5.1,12.2l-6.5,7.9c-1,1.2-0.9,3.1,0.2,4.2l11.9,11.9 c1.1,1.1,3,1.2,4.2,0.2l7.9-6.6c3.8,2.3,7.9,4,12.2,5.2l1,10.3c0.2,1.6,1.5,2.9,3.1,2.9H175c1.6,0,3-1.3,3.1-2.9l1-10.3 c4.3-1.1,8.4-2.9,12.2-5.1l7.9,6.5c1.2,1,3.1,0.9,4.2-0.2l11.9-11.9c1.1-1.1,1.2-3,0.2-4.2l-6.6-7.9c2.3-3.8,4-7.9,5.2-12.2 l10.1-1c1.6-0.2,2.8-1.5,2.8-3.1V82c0-1.6-1.2-3-2.8-3.1l-10.3-1c-1.1-4.3-2.9-8.4-5.1-12.2l6.5-7.9c1-1.2,0.9-3.1-0.2-4.2 l-11.8-11.9c-1.1-1.2-3-1.3-4.2-0.2l-7.9,6.6c-3.8-2.3-7.9-4-12.2-5.2l-1-10.2c-0.2-1.6-1.5-2.8-3.1-2.7h-16.9 c-1.6,0-3,1.1-3.1,2.7L154,43c-4.3,1.1-8.4,2.9-12.2,5.1l-7.9-6.6c-1.2-1-3.1-1-4.2,0.2l-11.9,11.9c-1.1,1.1-1.2,3-0.2,4.2 l6.6,7.9c-2.3,3.8-4,7.9-5.2,12.2l-10.3,1c-1.6,0.2-2.8,1.5-2.8,3.1v16.9C105.9,100.5,107.1,101.9,108.7,102z M112.1,84.9l9.7-0.9 c1.4-0.1,2.5-1.1,2.8-2.5c1.1-5.1,3.2-10,6-14.3c0.7-1.1,0.7-2.6-0.2-3.7l-6.1-7.4l7.9-7.9l7.4,6.2c1.1,0.9,2.6,1,3.7,0.2 c4.3-2.9,9.2-4.9,14.3-6c1.3-0.2,2.3-1.3,2.5-2.7l0.9-9.6h11.2l0.9,9.6c0.1,1.3,1.1,2.4,2.5,2.7c5.1,1.1,10,3.2,14.3,6 c1.2,0.7,2.7,0.6,3.7-0.2l7.4-6.2l7.7,7.8l-6.2,7.5c-0.9,1.1-1,2.6-0.2,3.7c2.9,4.3,4.9,9.2,6,14.3c0.3,1.3,1.4,2.3,2.8,2.5 l9.7,0.9v11.2l-9.5,0.9c-1.4,0.1-2.5,1.1-2.8,2.5c-1.1,5.1-3.2,10-6,14.3c-0.7,1.1-0.7,2.6,0.2,3.7l6.2,7.4l-7.9,7.9l-7.5-6.2 c-1.1-0.9-2.6-1-3.7-0.2c-4.3,2.9-9.2,4.9-14.3,6c-1.3,0.3-2.3,1.4-2.5,2.8l-0.9,9.7H161l-0.9-9.7c-0.1-1.4-1.1-2.5-2.5-2.8 c-5.1-1.1-10-3.2-14.3-6.1c-1.1-0.7-2.6-0.7-3.7,0.2l-7.4,6.2l-7.8-7.9l6.2-7.4c0.9-1.1,1-2.6,0.2-3.7c-2.9-4.3-4.9-9.2-6-14.3 c-0.3-1.3-1.4-2.3-2.8-2.5l-9.7-0.9L112.1,84.9z"></path> <path id="Path_38" d="M166.6,126.5c19.9,0,36-16.1,36-36s-16.1-36-36-36c-19.9,0-36,16.1-36,36l0,0 C130.6,110.4,146.7,126.5,166.6,126.5z M166.6,60.8c16.4,0,29.7,13.3,29.7,29.7c0,16.4-13.3,29.7-29.7,29.7s-29.7-13.3-29.7-29.7 c0,0,0,0,0,0l0,0C136.9,74.1,150.2,60.8,166.6,60.8L166.6,60.8z"></path> <path id="Path_39" class="st2" d="M160.4,101.3c1.2,1.2,3.2,1.2,4.4,0l17.5-17.1c1.2-1.2,1.3-3.2,0.1-4.4 c-1.2-1.2-3.2-1.3-4.4-0.1l0,0l-15.3,15l-7.5-7.3c-1.2-1.2-3.2-1.2-4.4,0c-1.2,1.2-1.2,3.2,0,4.4l0,0l0,0L160.4,101.3z"></path> </g> </g> </svg> 